<?xml version="1.0" encoding="UTF-8" ?>
<!DOCTYPE svg PUBLIC "-//W3C//DTD SVG 1.1//EN" "http://www.w3.org/Graphics/SVG/1.1/DTD/svg11.dtd">
<svg id="weather34 pleasant feeling" width="1024pt" height="1024pt" viewBox="0 0 1024 1024" version="1.1" xmlns="http://www.w3.org/2000/svg">
<path fill="#ecb454" stroke="#ecb454" stroke-width="5" opacity="1.00" d=" M 507.34 234.40 C 554.31 233.60 601.46 243.31 644.17 262.90 C 713.09 294.09 770.07 350.88 801.16 419.88 C 833.74 490.86 837.98 574.22 813.12 648.23 C 795.62 701.12 763.53 749.01 721.59 785.63 C 678.38 823.61 624.62 849.51 567.92 859.34 C 495.64 872.29 418.92 859.36 355.21 822.74 C 289.30 785.49 237.54 723.79 212.87 652.17 C 196.55 605.56 191.73 555.04 198.50 506.15 C 204.74 460.43 221.39 416.18 246.75 377.64 C 284.87 319.20 342.90 274.02 408.97 251.54 C 440.57 240.62 473.93 234.89 507.34 234.40 M 446.02 325.03 C 416.92 330.82 391.24 349.12 374.17 373.11 C 361.30 391.04 352.64 411.72 347.17 433.02 C 345.55 441.79 345.75 450.77 345.48 459.66 C 344.23 466.34 344.56 473.16 344.23 479.92 C 344.20 503.61 347.70 527.12 351.69 550.41 C 347.94 551.42 344.19 552.39 340.45 553.40 C 335.68 564.04 336.28 576.20 339.75 587.12 C 343.39 598.06 346.95 609.04 350.92 619.86 C 355.85 632.82 368.13 642.51 381.90 644.25 C 392.17 665.46 403.59 686.21 417.77 705.09 C 424.61 714.18 432.35 722.54 440.04 730.92 C 452.29 743.46 467.25 754.89 485.09 757.37 C 505.01 760.42 526.29 760.40 544.97 751.97 C 554.46 747.78 562.04 740.55 569.57 733.62 C 595.77 708.44 615.17 677.09 630.53 644.38 C 641.26 643.14 651.00 636.91 656.99 627.99 C 663.69 618.98 665.81 607.78 669.50 597.42 C 671.13 592.63 672.41 587.74 673.83 582.90 C 676.47 573.38 676.73 562.73 672.25 553.72 C 669.27 552.25 665.78 551.95 662.65 550.75 C 664.96 541.44 667.39 532.16 670.11 522.95 C 676.59 498.85 675.22 473.51 671.97 449.03 C 668.71 429.11 663.93 409.17 654.84 391.02 C 652.40 386.38 649.68 381.80 646.01 378.01 C 641.81 374.10 639.05 368.96 634.93 364.98 C 614.35 343.68 585.98 331.80 557.43 325.70 C 520.76 318.31 482.86 319.65 446.02 325.03 Z" />
<path fill="#555" stroke="#555" stroke-width="5" opacity="1.00" d=" M 446.02 325.03 C 482.86 319.65 520.76 318.31 557.43 325.70 C 585.98 331.80 614.35 343.68 634.93 364.98 C 639.05 368.96 641.81 374.10 646.01 378.01 C 649.68 381.80 652.40 386.38 654.84 391.02 C 663.93 409.17 668.71 429.11 671.97 449.03 C 675.22 473.51 676.59 498.85 670.11 522.95 C 667.39 532.16 664.96 541.44 662.65 550.75 C 661.59 555.13 660.59 559.52 659.51 563.89 C 655.62 579.86 652.00 595.88 648.29 611.89 C 645.89 593.31 643.72 574.70 641.39 556.12 C 641.20 544.34 639.20 532.46 634.46 521.63 C 627.93 506.33 616.14 493.61 602.07 484.90 C 592.84 479.16 582.79 474.50 572.15 472.09 C 581.37 484.59 594.66 493.18 606.89 502.45 C 599.82 503.04 592.89 501.12 586.25 498.91 C 567.20 492.12 549.51 482.14 532.17 471.85 C 518.34 463.66 505.06 454.58 491.61 445.80 C 499.13 458.41 510.72 467.87 521.84 477.18 C 532.91 486.41 544.60 494.85 556.32 503.22 C 537.59 504.55 519.77 497.03 502.77 490.12 C 468.52 475.14 436.23 456.03 404.96 435.64 C 403.85 446.71 400.83 457.46 398.01 468.19 C 396.36 473.85 395.09 479.63 393.00 485.16 C 386.05 502.21 383.42 520.66 382.31 538.93 C 381.80 552.93 381.20 566.98 382.49 580.96 C 382.97 594.41 385.73 607.69 385.47 621.19 C 377.56 593.56 369.80 565.88 361.35 538.40 C 351.45 513.33 347.75 486.36 345.48 459.66 C 345.75 450.77 345.55 441.79 347.17 433.02 C 352.64 411.72 361.30 391.04 374.17 373.11 C 391.24 349.12 416.92 330.82 446.02 325.03 Z" />
<path fill="#ecb454" stroke="#ecb454" stroke-width="5" opacity="1.00" d=" M 404.96 435.64 C 436.23 456.03 468.52 475.14 502.77 490.12 C 519.77 497.03 537.59 504.55 556.32 503.22 C 544.60 494.85 532.91 486.41 521.84 477.18 C 510.72 467.87 499.13 458.41 491.61 445.80 C 505.06 454.58 518.34 463.66 532.17 471.85 C 549.51 482.14 567.20 492.12 586.25 498.91 C 592.89 501.12 599.82 503.04 606.89 502.45 C 594.66 493.18 581.37 484.59 572.15 472.09 C 582.79 474.50 592.84 479.16 602.07 484.90 C 616.14 493.61 627.93 506.33 634.46 521.63 C 639.20 532.46 641.20 544.34 641.39 556.12 C 643.72 574.70 645.89 593.31 648.29 611.89 C 652.00 595.88 655.62 579.86 659.51 563.89 C 661.65 563.96 663.80 564.03 665.95 564.12 C 662.20 587.13 656.20 610.46 642.67 629.84 C 638.13 627.54 633.61 625.20 629.07 622.91 C 615.85 650.98 601.70 678.94 582.41 703.41 C 572.00 716.56 560.13 728.65 546.57 738.57 C 522.18 752.91 489.91 752.83 465.62 738.31 C 449.83 726.58 436.24 712.09 424.71 696.20 C 408.15 673.54 395.47 648.37 383.56 623.05 C 378.98 625.26 374.44 627.58 369.88 629.83 C 356.32 610.23 350.22 586.71 346.44 563.49 C 352.51 563.73 358.59 563.94 364.67 564.31 C 363.86 555.63 361.64 547.12 361.35 538.40 C 369.80 565.88 377.56 593.56 385.47 621.19 C 385.73 607.69 382.97 594.41 382.49 580.96 C 381.20 566.98 381.80 552.93 382.31 538.93 C 383.42 520.66 386.05 502.21 393.00 485.16 C 395.09 479.63 396.36 473.85 398.01 468.19 C 400.83 457.46 403.85 446.71 404.96 435.64 M 422.63 532.12 C 441.38 530.03 460.34 529.96 479.07 532.31 C 474.41 527.04 467.71 524.03 460.98 522.42 C 447.68 519.32 432.52 522.35 422.63 532.12 M 533.50 532.17 C 552.26 530.08 571.23 529.92 589.99 532.15 C 575.15 517.31 548.46 517.75 533.50 532.17 M 548.72 549.70 C 545.38 552.72 545.59 558.20 548.53 561.42 C 557.77 567.55 571.90 566.54 578.69 557.20 C 577.99 553.81 576.46 550.46 573.46 548.53 C 566.14 543.64 555.52 544.06 548.72 549.70 M 443.94 546.58 C 439.92 547.70 436.66 550.40 433.76 553.29 C 434.73 556.29 435.92 559.42 438.43 561.50 C 442.24 564.56 447.38 565.49 452.15 564.85 C 458.89 564.12 465.10 560.84 470.16 556.42 C 464.47 548.33 453.63 543.59 443.94 546.58 M 485.66 615.10 C 498.55 620.83 513.65 620.72 526.64 615.36 C 514.05 608.76 498.41 609.08 485.66 615.10 M 458.69 658.22 C 463.49 675.04 474.75 691.30 491.75 697.36 C 504.04 701.44 518.34 700.32 529.35 693.25 C 541.75 685.36 549.86 672.12 553.91 658.22 C 522.23 655.70 490.37 655.64 458.69 658.22 Z" />
<path fill="#555" stroke="#555" stroke-width="5" opacity="1.00" d=" M 345.48 459.66 C 347.75 486.36 351.45 513.33 361.35 538.40 C 361.64 547.12 363.86 555.63 364.67 564.31 C 358.59 563.94 352.51 563.73 346.44 563.49 C 350.22 586.71 356.32 610.23 369.88 629.83 C 374.44 627.58 378.98 625.26 383.56 623.05 C 395.47 648.37 408.15 673.54 424.71 696.20 C 436.24 712.09 449.83 726.58 465.62 738.31 C 489.91 752.83 522.18 752.91 546.57 738.57 C 560.13 728.65 572.00 716.56 582.41 703.41 C 601.70 678.94 615.85 650.98 629.07 622.91 C 633.61 625.20 638.13 627.54 642.67 629.84 C 656.20 610.46 662.20 587.13 665.95 564.12 C 663.80 564.03 661.65 563.96 659.51 563.89 C 660.59 559.52 661.59 555.13 662.65 550.75 C 665.78 551.95 669.27 552.25 672.25 553.72 C 676.73 562.73 676.47 573.38 673.83 582.90 C 672.41 587.74 671.13 592.63 669.50 597.42 C 665.81 607.78 663.69 618.98 656.99 627.99 C 651.00 636.91 641.26 643.14 630.53 644.38 C 615.17 677.09 595.77 708.44 569.57 733.62 C 562.04 740.55 554.46 747.78 544.97 751.97 C 526.29 760.40 505.01 760.42 485.09 757.37 C 467.25 754.89 452.29 743.46 440.04 730.92 C 432.35 722.54 424.61 714.18 417.77 705.09 C 403.59 686.21 392.17 665.46 381.90 644.25 C 368.13 642.51 355.85 632.82 350.92 619.86 C 346.95 609.04 343.39 598.06 339.75 587.12 C 336.28 576.20 335.68 564.04 340.45 553.40 C 344.19 552.39 347.94 551.42 351.69 550.41 C 347.70 527.12 344.20 503.61 344.23 479.92 C 344.56 473.16 344.23 466.34 345.48 459.66 Z" />
<path fill="#555" stroke="#555" stroke-width="5" opacity="1.00" d=" M 422.63 532.12 C 432.52 522.35 447.68 519.32 460.98 522.42 C 467.71 524.03 474.41 527.04 479.07 532.31 C 460.34 529.96 441.38 530.03 422.63 532.12 Z" />
<path fill="#555" stroke="#555" stroke-width="5" opacity="1.00" d=" M 533.50 532.17 C 548.46 517.75 575.15 517.31 589.99 532.15 C 571.23 529.92 552.26 530.08 533.50 532.17 Z" />
<path fill="#555" stroke="#555" stroke-width="5" opacity="1.00" d=" M 548.72 549.70 C 555.52 544.06 566.14 543.64 573.46 548.53 C 576.46 550.46 577.99 553.81 578.69 557.20 C 571.90 566.54 557.77 567.55 548.53 561.42 C 545.59 558.20 545.38 552.72 548.72 549.70 Z" />
<path fill="#555" stroke="#555" stroke-width="5" opacity="1.00" d=" M 443.94 546.58 C 453.63 543.59 464.47 548.33 470.16 556.42 C 465.10 560.84 458.89 564.12 452.15 564.85 C 447.38 565.49 442.24 564.56 438.43 561.50 C 435.92 559.42 434.73 556.29 433.76 553.29 C 436.66 550.40 439.92 547.70 443.94 546.58 Z" />
<path fill="#555" stroke="#555" stroke-width="5" opacity="1.00" d=" M 485.66 615.10 C 498.41 609.08 514.05 608.76 526.64 615.36 C 513.65 620.72 498.55 620.83 485.66 615.10 Z" />
<path fill="#555" stroke="#555" stroke-width="5" opacity="1.00" d=" M 458.69 658.22 C 490.37 655.64 522.23 655.70 553.91 658.22 C 549.86 672.12 541.75 685.36 529.35 693.25 C 518.34 700.32 504.04 701.44 491.75 697.36 C 474.75 691.30 463.49 675.04 458.69 658.22 M 470.27 665.51 C 475.03 674.92 481.82 683.94 491.56 688.57 C 498.19 691.85 505.83 691.49 513.00 690.96 C 526.64 688.89 536.52 677.37 542.16 665.52 C 518.20 665.00 494.23 665.02 470.27 665.51 Z" />
<path fill="#ecb454" stroke="#ecb454" stroke-width="5" opacity="1.00" d=" M 470.27 665.51 C 494.23 665.02 518.20 665.00 542.16 665.52 C 536.52 677.37 526.64 688.89 513.00 690.96 C 505.83 691.49 498.19 691.85 491.56 688.57 C 481.82 683.94 475.03 674.92 470.27 665.51 Z" />
</svg>
