<?xml version="1.0" encoding="UTF-8" ?>
<!DOCTYPE svg PUBLIC "-//W3C//DTD SVG 1.1//EN" "http://www.w3.org/Graphics/SVG/1.1/DTD/svg11.dtd">
<svg id="weather34 warm feeling" width="1024pt" height="1024pt" viewBox="0 0 1024 1024" version="1.1" xmlns="http://www.w3.org/2000/svg">
<path fill="#ed7816" stroke="#ed7816" stroke-width="10" opacity="1.00" d=" M 494.55 234.80 C 535.97 232.60 577.86 238.25 617.03 252.00 C 655.26 265.27 690.87 286.02 721.30 312.69 C 778.39 362.20 816.80 432.89 826.37 507.93 C 836.21 580.22 819.72 655.80 780.28 717.22 C 749.70 765.51 705.71 805.19 654.56 830.69 C 588.63 864.00 510.88 872.80 439.07 855.71 C 365.66 838.69 299.12 794.19 255.12 733.06 C 231.56 700.68 214.35 663.70 204.71 624.84 C 194.39 583.17 192.75 539.38 199.88 497.06 C 206.61 456.72 221.48 417.79 243.20 383.15 C 265.84 346.98 295.88 315.45 330.95 291.13 C 378.82 257.59 436.20 237.99 494.55 234.80 M 463.97 326.79 C 453.66 327.92 443.20 328.81 433.40 332.44 C 413.78 338.85 396.31 351.07 382.67 366.47 C 364.78 386.71 353.47 412.01 346.93 438.01 C 343.21 464.70 348.27 491.49 353.14 517.65 C 353.70 532.55 357.06 547.20 358.96 561.97 C 354.07 566.82 346.18 569.68 344.61 577.06 C 343.74 593.16 349.29 608.65 354.50 623.62 C 357.69 631.94 359.76 641.18 366.30 647.68 C 372.55 654.60 381.37 658.09 390.02 660.89 C 393.33 666.78 395.83 673.13 399.15 679.03 C 415.24 709.89 435.68 739.05 462.58 761.44 C 466.69 765.15 471.21 768.42 476.22 770.79 C 486.75 775.79 498.51 777.22 510.00 778.00 C 525.76 778.24 542.24 777.11 556.40 769.52 C 563.91 765.72 569.84 759.64 576.11 754.16 C 603.86 728.15 624.06 695.24 640.07 661.00 C 642.71 659.99 645.38 659.09 648.05 658.15 C 659.04 654.06 668.55 645.30 672.07 633.93 C 678.43 615.54 686.64 596.89 685.66 577.03 C 684.09 569.68 676.30 566.73 671.38 561.94 C 672.84 551.96 674.39 542.00 675.90 532.03 C 680.15 499.00 680.58 464.29 668.24 432.83 C 665.02 421.14 661.74 409.37 656.45 398.40 C 653.26 391.43 649.25 384.63 643.46 379.49 C 630.23 360.54 609.97 347.57 588.84 339.09 C 570.03 331.67 550.07 327.41 529.95 325.73 C 507.98 323.93 485.85 324.25 463.97 326.79 Z" />
<path fill="#000" stroke="#000" stroke-width="10" opacity="1.00" d=" M 463.97 326.79 C 485.85 324.25 507.98 323.93 529.95 325.73 C 550.07 327.41 570.03 331.67 588.84 339.09 C 609.97 347.57 630.23 360.54 643.46 379.49 C 649.25 384.63 653.26 391.43 656.45 398.40 C 661.74 409.37 665.02 421.14 668.24 432.83 C 674.82 465.25 678.56 499.65 668.73 531.84 C 664.32 546.72 661.10 561.91 657.23 576.93 C 654.51 589.87 651.08 602.66 648.50 615.62 C 645.60 597.80 644.07 579.76 641.58 561.86 C 640.89 557.55 641.65 553.10 640.52 548.85 C 638.35 539.89 636.05 530.92 632.80 522.30 C 624.61 504.75 609.06 491.55 591.87 483.22 C 585.57 480.33 579.11 477.35 572.24 476.31 C 581.22 488.21 593.82 496.65 605.63 505.50 C 605.72 505.76 605.91 506.29 606.00 506.56 C 600.23 506.95 594.65 505.33 589.13 503.90 C 570.63 497.73 553.46 488.29 536.65 478.53 C 525.87 472.18 515.33 465.44 504.87 458.57 C 500.36 455.76 496.16 452.46 491.64 449.69 C 493.31 453.21 495.86 456.22 498.27 459.25 C 515.06 477.52 535.34 492.11 555.40 506.53 L 555.73 507.28 C 541.13 508.29 526.91 503.49 513.41 498.45 C 475.08 483.23 439.45 462.02 404.94 439.63 C 404.27 447.58 402.26 455.31 400.46 463.06 C 398.07 471.54 396.06 480.14 393.29 488.52 C 388.28 500.10 385.86 512.55 383.89 524.95 C 381.03 551.20 380.89 577.80 384.19 604.00 C 385.00 610.98 385.41 617.99 385.49 625.02 C 380.72 609.47 376.68 593.69 372.01 578.12 C 367.43 562.77 363.14 547.33 357.69 532.27 C 355.86 527.49 355.10 522.38 353.14 517.65 C 348.27 491.49 343.21 464.70 346.93 438.01 C 353.47 412.01 364.78 386.71 382.67 366.47 C 396.31 351.07 413.78 338.85 433.40 332.44 C 443.20 328.81 453.66 327.92 463.97 326.79 Z" />
<path fill="#000" stroke="#000" stroke-width="10" opacity="1.00" d=" M 668.24 432.83 C 680.58 464.29 680.15 499.00 675.90 532.03 C 674.39 542.00 672.84 551.96 671.38 561.94 C 676.30 566.73 684.09 569.68 685.66 577.03 C 686.64 596.89 678.43 615.54 672.07 633.93 C 668.55 645.30 659.04 654.06 648.05 658.15 C 645.38 659.09 642.71 659.99 640.07 661.00 C 624.06 695.24 603.86 728.15 576.11 754.16 C 569.84 759.64 563.91 765.72 556.40 769.52 C 542.24 777.11 525.76 778.24 510.00 778.00 C 498.51 777.22 486.75 775.79 476.22 770.79 C 471.21 768.42 466.69 765.15 462.58 761.44 C 435.68 739.05 415.24 709.89 399.15 679.03 C 395.83 673.13 393.33 666.78 390.02 660.89 C 381.37 658.09 372.55 654.60 366.30 647.68 C 359.76 641.18 357.69 631.94 354.50 623.62 C 349.29 608.65 343.74 593.16 344.61 577.06 C 346.18 569.68 354.07 566.82 358.96 561.97 C 357.06 547.20 353.70 532.55 353.14 517.65 C 355.10 522.38 355.86 527.49 357.69 532.27 C 363.14 547.33 367.43 562.77 372.01 578.12 C 365.76 577.85 359.52 577.59 353.27 577.35 C 355.99 591.93 358.74 606.61 363.68 620.64 C 367.07 629.34 371.38 638.17 377.92 644.81 C 382.67 643.21 387.09 640.66 391.93 639.33 C 407.88 678.26 429.01 715.98 459.66 745.27 C 466.10 750.92 472.16 757.21 480.01 760.92 C 495.95 769.00 514.61 769.84 531.99 767.02 C 541.67 765.64 550.76 761.39 558.62 755.68 C 563.88 752.00 568.28 747.30 573.00 742.99 C 587.93 727.96 601.19 711.22 611.89 692.92 C 616.70 685.17 620.56 676.88 624.84 668.83 C 630.06 659.22 633.70 648.84 638.72 639.16 C 643.40 641.11 648.04 643.21 652.82 644.91 C 659.56 636.58 664.58 626.96 667.91 616.80 C 671.92 604.18 674.60 591.19 676.94 578.18 C 670.37 577.68 663.71 578.22 657.23 576.93 C 661.10 561.91 664.32 546.72 668.73 531.84 C 678.56 499.65 674.82 465.25 668.24 432.83 Z" />
<path fill="#ed7816" stroke="#ed7816" stroke-width="10" opacity="1.00" d=" M 404.94 439.63 C 439.45 462.02 475.08 483.23 513.41 498.45 C 526.91 503.49 541.13 508.29 555.73 507.28 L 555.40 506.53 C 535.34 492.11 515.06 477.52 498.27 459.25 C 500.43 458.76 502.64 458.36 504.87 458.57 C 515.33 465.44 525.87 472.18 536.65 478.53 C 553.46 488.29 570.63 497.73 589.13 503.90 C 594.65 505.33 600.23 506.95 606.00 506.56 C 605.91 506.29 605.72 505.76 605.63 505.50 C 593.82 496.65 581.22 488.21 572.24 476.31 C 579.11 477.35 585.57 480.33 591.87 483.22 C 609.06 491.55 624.61 504.75 632.80 522.30 C 636.05 530.92 638.35 539.89 640.52 548.85 C 641.65 553.10 640.89 557.55 641.58 561.86 C 644.07 579.76 645.60 597.80 648.50 615.62 C 651.08 602.66 654.51 589.87 657.23 576.93 C 663.71 578.22 670.37 577.68 676.94 578.18 C 674.60 591.19 671.92 604.18 667.91 616.80 C 664.58 626.96 659.56 636.58 652.82 644.91 C 648.04 643.21 643.40 641.11 638.72 639.16 C 633.70 648.84 630.06 659.22 624.84 668.83 C 620.56 676.88 616.70 685.17 611.89 692.92 C 601.19 711.22 587.93 727.96 573.00 742.99 C 568.28 747.30 563.88 752.00 558.62 755.68 C 550.76 761.39 541.67 765.64 531.99 767.02 C 514.61 769.84 495.95 769.00 480.01 760.92 C 472.16 757.21 466.10 750.92 459.66 745.27 C 429.01 715.98 407.88 678.26 391.93 639.33 C 387.09 640.66 382.67 643.21 377.92 644.81 C 371.38 638.17 367.07 629.34 363.68 620.64 C 358.74 606.61 355.99 591.93 353.27 577.35 C 359.52 577.59 365.76 577.85 372.01 578.12 C 376.68 593.69 380.72 609.47 385.49 625.02 C 385.41 617.99 385.00 610.98 384.19 604.00 C 380.89 577.80 381.03 551.20 383.89 524.95 C 385.86 512.55 388.28 500.10 393.29 488.52 C 396.06 480.14 398.07 471.54 400.46 463.06 C 402.26 455.31 404.27 447.58 404.94 439.63 M 431.30 537.22 L 430.92 537.66 C 441.77 542.96 454.10 544.96 466.10 543.76 C 473.60 542.80 481.40 541.16 487.85 537.14 C 469.06 535.31 450.07 535.01 431.30 537.22 M 542.74 537.56 C 560.44 545.88 582.40 546.66 599.82 537.28 C 580.87 535.27 561.64 534.94 542.74 537.56 M 452.48 560.55 C 449.36 561.43 446.84 563.57 444.11 565.20 C 440.88 569.81 445.11 576.39 449.93 577.86 C 453.66 578.16 457.29 579.76 461.07 579.01 C 468.07 577.94 473.54 572.89 477.94 567.68 C 477.90 567.38 477.81 566.77 477.77 566.47 C 469.95 562.85 461.33 558.08 452.48 560.55 M 552.30 566.68 C 557.16 576.00 568.93 580.92 579.01 578.16 C 584.28 576.63 587.57 571.30 587.63 565.96 C 584.20 562.69 579.81 560.38 575.03 560.05 C 566.99 559.49 558.97 562.53 552.30 566.68 M 494.87 627.19 C 498.24 630.34 502.35 632.72 506.87 633.77 C 516.20 636.19 525.79 633.74 534.86 631.38 C 534.84 630.10 533.21 630.10 532.38 629.59 C 520.44 624.86 507.35 626.92 494.87 627.19 M 470.52 684.73 C 486.24 689.43 502.77 688.16 518.95 688.39 C 532.59 688.12 546.80 689.14 559.80 684.39 C 546.25 678.83 531.34 679.72 517.01 679.68 C 506.37 679.83 495.65 679.09 485.09 680.66 C 480.06 681.19 474.99 682.33 470.52 684.73 M 499.54 702.89 C 499.76 705.73 500.21 708.56 500.58 711.40 C 510.89 711.13 521.97 712.34 531.42 707.31 C 532.28 706.61 533.98 706.36 534.03 705.04 C 522.62 703.16 511.05 703.13 499.54 702.89 Z" />
<path fill="#000" stroke="#000" stroke-width="10" opacity="1.00" d=" M 491.64 449.69 C 496.16 452.46 500.36 455.76 504.87 458.57 C 502.64 458.36 500.43 458.76 498.27 459.25 C 495.86 456.22 493.31 453.21 491.64 449.69 Z" />
<path fill="#000" stroke="#000" stroke-width="10" opacity="1.00" d=" M 431.30 537.22 C 450.07 535.01 469.06 535.31 487.85 537.14 C 481.40 541.16 473.60 542.80 466.10 543.76 C 454.10 544.96 441.77 542.96 430.92 537.66 L 431.30 537.22 Z" />
<path fill="#000" stroke="#000" stroke-width="10" opacity="1.00" d=" M 542.74 537.56 C 561.64 534.94 580.87 535.27 599.82 537.28 C 582.40 546.66 560.44 545.88 542.74 537.56 Z" />
<path fill="#000" stroke="#000" stroke-width="10" opacity="1.00" d=" M 452.48 560.55 C 461.33 558.08 469.95 562.85 477.77 566.47 C 477.81 566.77 477.90 567.38 477.94 567.68 C 473.54 572.89 468.07 577.94 461.07 579.01 C 457.29 579.76 453.66 578.16 449.93 577.86 C 445.11 576.39 440.88 569.81 444.11 565.20 C 446.84 563.57 449.36 561.43 452.48 560.55 Z" />
<path fill="#000" stroke="#000" stroke-width="10" opacity="1.00" d=" M 552.30 566.68 C 558.97 562.53 566.99 559.49 575.03 560.05 C 579.81 560.38 584.20 562.69 587.63 565.96 C 587.57 571.30 584.28 576.63 579.01 578.16 C 568.93 580.92 557.16 576.00 552.30 566.68 Z" />
<path fill="#000" stroke="#000" stroke-width="10" opacity="1.00" d=" M 494.87 627.19 C 507.35 626.92 520.44 624.86 532.38 629.59 C 533.21 630.10 534.84 630.10 534.86 631.38 C 525.79 633.74 516.20 636.19 506.87 633.77 C 502.35 632.72 498.24 630.34 494.87 627.19 Z" />
<path fill="#000" stroke="#000" stroke-width="10" opacity="1.00" d=" M 470.52 684.73 C 474.99 682.33 480.06 681.19 485.09 680.66 C 495.65 679.09 506.37 679.83 517.01 679.68 C 531.34 679.72 546.25 678.83 559.80 684.39 C 546.80 689.14 532.59 688.12 518.95 688.39 C 502.77 688.16 486.24 689.43 470.52 684.73 Z" />
<path fill="#000" stroke="#000" stroke-width="10" opacity="1.00" d=" M 499.54 702.89 C 511.05 703.13 522.62 703.16 534.03 705.04 C 533.98 706.36 532.28 706.61 531.42 707.31 C 521.97 712.34 510.89 711.13 500.58 711.40 C 500.21 708.56 499.76 705.73 499.54 702.89 Z" />
</svg>
