<svg xmlns="http://www.w3.org/2000/svg" xmlns:xlink="http://www.w3.org/1999/xlink" viewBox="0 0 720 720">
    <path fill="orange" d="M355.41 0h13.52c52.41 1.49 104.54 14.11 151.44 37.63 64.8 32.16 119.38 84.38 154.43 147.64 28.24 50.46 43.57 107.85 45.2 165.61v17.36c-1.18 43.57-9.91 86.98-26.43 127.34-26.11 64.44-71.43 120.85-128.6 160.39-31.52 21.89-66.58 38.69-103.41 49.48-30 8.89-61.17 13.51-92.42 14.55h-13.62c-44.58-.59-89.07-9.37-130.4-26.14-62.95-25.35-118.31-69.03-157.79-124.21-25.09-34.95-43.87-74.42-55-115.99C4.78 425.84.87 397.09 0 368.3v-17.28c1.06-32.89 6.15-65.69 15.92-97.13 17.2-56.04 48.48-107.66 90.07-148.96 41.54-41.49 93.39-72.59 149.61-89.53C287.93 5.58 321.65.49 355.41 0m-6.16 42.3C284.93 44.21 221.46 66.51 170 105.11c-42 31.31-76.1 73.11-98.23 120.59-33.4 71.07-38.76 154.65-15.16 229.5 12.96 41.49 34.67 80.2 63.17 113.01 26.11 30.13 57.93 55.31 93.28 73.76 35.06 18.34 73.6 29.97 112.94 34.12 47.01 4.96 95.15-.4 139.73-16.21 72.25-25.23 134.41-77.73 171.68-144.53 20.98-37.26 34.21-78.85 38.69-121.38 4.98-47.25-.47-95.64-16.47-140.41-24.44-69.39-74-129.45-137.27-166.92-51.85-31.03-112.75-46.51-173.11-44.34Z"/>
    <path fill="#aaa" d="M439.71 77.66c11.65-5.12 26.22-2.71 35.4 6.18 6.91 6.36 10.78 15.81 10.38 25.19-.11 5.44-2.11 10.56-3.75 15.67-23.89 73.13-47.72 146.27-71.62 219.39-8.73-15.81-25.97-26.87-44.16-27.16-16.67-.37-32.81 8.53-42.46 21.94.32-61.95.71-123.89 1.07-185.84.25-16.61 14.79-31.35 31.42-31.64 16.82-1.11 32.78 12.74 34.01 29.55.67 14.46-.41 28.97.32 43.42.8-4.24 2.33-8.29 3.64-12.38 9.1-27.94 18.24-55.86 27.33-83.79 2.83-9.07 9.64-16.83 18.42-20.53Z"/>
    <path fill="rgba(255, 124, 57, 1.000)" d="M323.5 338.87c9.65-13.41 25.79-22.31 42.46-21.94 18.19.29 35.43 11.35 44.16 27.16 7.12 12.2 8.58 27.51 3.85 40.83-7.27 21.29-29.2 37.13-51.94 35.48-20.59-1.27-39.19-16.25-45.79-35.64-5.43-15.26-2.44-32.98 7.26-45.89Z"/>
</svg>