<svg xmlns="http://www.w3.org/2000/svg" xmlns:xlink="http://www.w3.org/1999/xlink" version="1.1" width="8pt" height="8pt" x="0px" y="0px" viewBox="0 0 496 496" style="enable-background: new 0 0 496 496" xml:space="preserve"><path style="fill: #719fa3" d="M496,428c0,6.4-5.6,12-12,12H12c-6.4,0-12-5.6-12-12l0,0c0-6.4,5.6-12,12-12h472 C490.4,416,496,421.6,496,428L496,428z"></path><rect x="24" y="56" style="fill: #1589ad" width="88" height="344"></rect><polyline style="fill: #04567f" points="24,56 112,56 112,400 "></polyline><rect x="144" y="128" style="fill: #24966a" width="88" height="272"></rect><polyline style="fill: #007763" points="144,128 232,128 232,400 "></polyline><rect x="264" y="208" style="fill: #e8961f" width="88" height="192"></rect><polyline style="fill: #e57520" points="264,208 352,208 352,400 "></polyline><rect x="384" y="272" style="fill: #d32a0f" width="88" height="128"></rect><polyline style="fill: #af1909" points="384,272 472,272 472,400 "></polyline><g></g></svg>